# xmcd
#
# Track frame offsets: 
#        150
#        20103
#        40602
#        59038
#        77235
#        92528
#        114948
#        136717
#        152973
#        173760
#        194830
#        215684
#
# Disc length: 3091 seconds
#
# Revision: 0
# Processed by: cddbd v1.5.2PL0 Copyright (c) Steve Scherf et al.
# Submitted via: ExactAudioCopyFreeDBPlugin 1.0
#
DISCID=a60c110c
DTITLE=The Rosellys - Two Much Like Trouble
DYEAR=1900
DGENRE=Americana
TTITLE0=Empty Pockets
TTITLE1=Innocent
TTITLE2=Cocaine Train
TTITLE3=Man of Money
TTITLE4=Taste the Weekend
TTITLE5=Bandera Saloon
TTITLE6=Only Seventeen
TTITLE7=Leaving With You
TTITLE8=Holding On
TTITLE9=San Antone
TTITLE10=Final Decision
TTITLE11=Eva's Song
EXTD=
EXTT0=
EXTT1=
EXTT2=
EXTT3=
EXTT4=
EXTT5=
EXTT6=
EXTT7=
EXTT8=
EXTT9=
EXTT10=
EXTT11=
PLAYORDER=
